HIERARCHY
ROOT Hips
{
	OFFSET	0.000000	0.000000	0.000000
	CHANNELS 6 Xposition Yposition Zposition Zrotation Xrotation Yrotation
	JOINT LeftHip
	{
		OFFSET	4.740440	-3.195970	-0.322709
		CHANNELS 3 Zrotation Xrotation Yrotation
		JOINT LeftKnee
		{
			OFFSET	-1.605680	-15.592300	1.005510
			CHANNELS 3 Zrotation Xrotation Yrotation
			JOINT LeftAnkle
			{
				OFFSET	-0.632401	-16.421000	-1.413730
				CHANNELS 3 Zrotation Xrotation Yrotation
				End Site
				{
					OFFSET	0.008423	-3.933000	-1.776750
				}
			}
		}
	}
	JOINT RightHip
	{
		OFFSET	-4.740440	-3.195970	-0.322709
		CHANNELS 3 Zrotation Xrotation Yrotation
		JOINT RightKnee
		{
			OFFSET	1.605680	-15.592300	1.005510
			CHANNELS 3 Zrotation Xrotation Yrotation
			JOINT RightAnkle
			{
				OFFSET	0.632401	-16.421000	-1.413730
				CHANNELS 3 Zrotation Xrotation Yrotation
				End Site
				{
					OFFSET	-0.008423	-3.933000	-1.776750
				}
			}
		}
	}
	JOINT Chest
	{
		OFFSET	0.000000	3.468200	0.078401
		CHANNELS 3 Zrotation Xrotation Yrotation
		JOINT LeftCollar
		{
			OFFSET	3.857650	15.070700	-0.011583
			CHANNELS 3 Zrotation Xrotation Yrotation
			JOINT LeftShoulder
			{
				OFFSET	3.979720	-1.940530	-0.165223
				CHANNELS 3 Zrotation Xrotation Yrotation
				JOINT LeftElbow
				{
					OFFSET	0.615844	-10.986600	-0.673886
					CHANNELS 3 Zrotation Xrotation Yrotation
					JOINT LeftWrist
					{
						OFFSET	0.826843	-10.854500	1.034220
						CHANNELS 3 Zrotation Xrotation Yrotation
						End Site
						{
							OFFSET	-1.679080	-8.456540	0.936217
						}
					}
				}
			}
		}
		JOINT RightCollar
		{
			OFFSET	-3.857650	15.070700	-0.011583
			CHANNELS 3 Zrotation Xrotation Yrotation
			JOINT RightShoulder
			{
				OFFSET	-3.979720	-1.940530	-0.165223
				CHANNELS 3 Zrotation Xrotation Yrotation
				JOINT RightElbow
				{
					OFFSET	-0.615845	-10.986600	-0.673886
					CHANNELS 3 Zrotation Xrotation Yrotation
					JOINT RightWrist
					{
						OFFSET	-0.826843	-10.854500	1.034220
						CHANNELS 3 Zrotation Xrotation Yrotation
						End Site
						{
							OFFSET	1.679080	-8.456540	0.936217
						}
					}
				}
			}
		}
		JOINT Neck
		{
			OFFSET	0.000000	15.101400	0.055730
			CHANNELS 3 Zrotation Xrotation Yrotation
			JOINT Head
			{
				OFFSET	0.000000	4.185120	1.488260
				CHANNELS 3 Zrotation Xrotation Yrotation
				End Site
				{
					OFFSET	0.000000	7.773420	-0.106016
				}
			}
		}
	}
}
MOTION
Frames:     15
Frame Time: 0.016667
0.387904	36.612118	-4.225842	-7.661988	-13.042299	-49.592163	1.317510	9.889649	15.385541	-13.519020	30.391039	28.425236	0.683992	-25.788736	9.876518	-17.066767	-11.334166	-7.566613	-3.262799	5.399323	-7.298615	8.831619	23.153109	6.952829	4.285174	10.512980	-17.035496	-9.614454	-7.110717	-2.228819	0.923529	-14.990669	-6.158907	-78.827995	-71.137405	-53.585056	44.760525	16.039455	-4.408424	-14.034410	-9.672759	-0.307710	-2.487012	0.794242	2.228783	92.630127	-59.100010	77.758041	-10.051300	0.195226	15.764335	-7.979228	-0.502255	5.624359	-0.707410	6.543494	27.929718	
0.304480	36.526672	-4.385409	-8.898466	-13.840526	-50.743797	2.099549	10.853108	15.593040	-14.449842	32.275139	29.420948	0.368274	-26.886269	9.855618	-16.009964	-11.426496	-7.899523	-3.951478	7.450200	-5.131788	8.088401	22.020241	6.325979	3.687646	12.362930	-16.197063	-9.328137	-6.743347	-2.646200	0.564310	-14.956227	-6.226573	-76.864586	-71.775688	-52.218979	45.534657	16.493622	-4.504153	-13.438885	-9.640873	-0.305922	-2.677587	0.602639	1.986404	92.233940	-58.808968	77.411194	-10.138927	0.490511	16.348419	-7.243194	-1.306679	5.716288	-0.830896	6.867193	28.111853	
0.273818	36.489346	-4.423934	-9.466320	-14.054812	-51.096111	2.441598	11.249685	15.515875	-14.709318	32.798347	29.770035	0.368075	-27.170033	9.926674	-15.656027	-11.347384	-8.050109	-4.050674	8.220838	-4.445376	7.907529	21.586685	6.206844	3.397503	13.035721	-15.945008	-9.056061	-6.602978	-2.795728	0.579537	-14.963174	-6.348823	-74.444832	-72.274773	-49.929390	45.355453	16.209682	-4.671080	-13.002802	-9.625279	-0.273684	-2.847439	0.509557	2.286105	92.060158	-58.966415	77.442322	-10.233556	0.668001	16.591379	-6.847128	-1.282094	5.848584	-0.752314	6.789227	28.137316	
0.115136	36.431911	-4.326795	-10.746284	-13.859688	-52.285583	3.521555	11.726596	15.462065	-15.285857	33.834133	30.874081	0.222350	-27.696407	10.102415	-14.984395	-11.383305	-7.614069	-3.172477	10.040857	-3.629746	7.387970	20.354097	6.018077	3.266419	14.253928	-15.291573	-8.283603	-6.105239	-3.001652	0.065526	-14.928941	-6.836951	-72.570213	-73.707626	-48.605217	45.689552	15.697612	-5.136843	-12.218771	-9.610641	-0.002233	-3.261673	-0.029610	3.611209	91.223610	-59.803326	77.347359	-10.614470	0.908952	16.863092	-6.091239	-1.073811	6.098487	-0.588389	6.402603	28.337103	
0.031191	36.437027	-4.272017	-10.817219	-13.613403	-52.637115	3.706108	11.579845	15.551387	-15.401723	33.985523	31.168333	0.173672	-27.765203	10.147824	-14.900183	-11.635988	-7.533695	-2.759279	10.475460	-3.406901	7.173471	19.990292	5.981841	3.279923	14.283772	-15.072330	-8.115974	-5.942471	-3.046633	-0.273967	-14.878869	-6.976437	-71.282280	-74.585442	-47.278473	45.339077	15.370810	-5.384599	-12.158382	-9.578964	0.058603	-3.289962	-0.232651	3.929421	90.905075	-60.003445	77.342010	-10.664363	0.934262	16.841476	-5.957984	-1.167834	6.075054	-0.519865	6.362389	28.515701	
-0.235195	36.495449	-4.161700	-10.227898	-12.995961	-52.874516	3.994767	10.807054	15.648906	-15.656133	34.185123	31.455502	-0.090178	-27.853662	10.132744	-15.389405	-12.715237	-7.713165	-1.353601	11.707001	-2.651590	6.711177	18.968548	5.353366	3.199868	13.839283	-14.821961	-8.196505	-5.459911	-3.490321	-1.105898	-15.017492	-7.114091	-70.544136	-75.628082	-47.521301	45.442699	15.098824	-5.364076	-12.346342	-9.529758	-0.213187	-3.034232	-0.700380	4.322423	90.123955	-59.998848	77.386398	-10.761063	0.941431	16.885214	-5.853772	-1.445429	5.738851	-0.373603	6.259255	29.044636	
-0.331712	36.526165	-4.180407	-9.849605	-12.895461	-52.618786	3.951244	10.526093	15.524544	-15.626358	34.132900	31.363150	-0.293507	-27.798225	10.087456	-15.642179	-13.043459	-7.898141	-1.041091	12.019504	-2.484435	6.630803	18.649965	5.046858	3.140765	13.718437	-15.120553	-8.411204	-5.551158	-3.589079	-1.109876	-15.052400	-7.026491	-70.412392	-75.890160	-47.527283	45.431446	15.020539	-5.503559	-12.467666	-9.698832	-0.269470	-2.905025	-0.812800	4.241982	89.799065	-59.888985	77.179855	-10.691278	0.871983	16.895109	-5.949052	-1.507773	5.536249	-0.279600	6.045740	29.355968	
-0.547510	36.574013	-4.253382	-10.041056	-13.072734	-52.569565	4.173372	11.186058	15.670245	-15.617247	33.789261	31.069431	-0.449112	-27.683422	9.849719	-15.490985	-12.866506	-7.466984	-0.742954	12.717937	-2.600937	6.419852	17.987570	4.712897	3.255998	14.151253	-15.235591	-8.597230	-5.727456	-3.719198	-1.491775	-14.820613	-7.100248	-70.216568	-76.455490	-47.693535	45.121670	14.743528	-5.748547	-12.909954	-9.773418	-0.753745	-2.451953	-0.978867	4.009352	89.290092	-59.444633	76.795120	-10.698484	0.799959	16.720802	-6.092111	-1.591450	5.240684	-0.208305	5.936808	29.621103	
-0.597314	36.585732	-4.285105	-10.245001	-13.205440	-52.457684	4.296761	11.544121	15.536945	-15.508443	33.633480	30.973717	-0.631270	-27.575033	9.745122	-15.356521	-12.578248	-7.387670	-0.805847	12.835571	-2.829487	6.360410	17.845888	4.810091	3.411373	14.431015	-15.515199	-8.707928	-5.845356	-3.670700	-1.525887	-14.733451	-7.102534	-70.196648	-76.516510	-47.889866	44.985680	14.696766	-5.791458	-13.093244	-9.848927	-0.809338	-2.306142	-1.003450	3.969914	89.038071	-59.372520	76.599907	-10.661621	0.723030	16.545313	-6.212181	-1.486156	5.207473	-0.176341	5.830633	29.727341	
-0.779825	36.641445	-4.323782	-10.216671	-13.080033	-52.189167	4.711072	11.842337	15.118487	-15.740537	33.178879	30.944521	-0.728312	-27.425198	9.701257	-14.952948	-12.421730	-7.224727	-0.978246	12.943172	-3.554762	6.167576	17.561111	5.178878	3.645517	14.355055	-15.881334	-8.779883	-5.938331	-3.616382	-1.496121	-14.634034	-6.743671	-70.586319	-76.186188	-48.472008	44.765671	14.429379	-5.926685	-13.344672	-10.037470	-0.984019	-2.250282	-0.900071	3.872049	88.646202	-59.132214	76.414200	-10.634142	0.544007	16.064756	-6.348516	-1.340301	5.262823	-0.191226	5.902343	29.861820	
-0.847059	36.662041	-4.312782	-9.884663	-12.758459	-51.889072	4.789247	11.531051	14.861139	-15.593267	32.923603	30.920288	-0.857749	-27.285181	9.610083	-14.876999	-12.714274	-7.452254	-1.014765	12.954765	-3.697728	6.137660	17.471519	5.232198	3.709793	13.880157	-15.948441	-8.657223	-5.946663	-3.680295	-1.593804	-14.582724	-6.606376	-70.547997	-75.990585	-48.489140	44.704578	14.399456	-5.841498	-13.367781	-10.035544	-1.157722	-2.309232	-0.884447	3.849372	88.573830	-59.041016	76.381493	-10.610958	0.526569	15.965071	-6.349649	-1.212313	5.131938	-0.169671	5.885207	29.906527	
-1.028131	36.730068	-4.288349	-9.492719	-12.420647	-51.733742	4.744534	11.191911	14.871332	-15.373507	32.640663	30.798779	-0.955358	-27.151690	9.528154	-14.738391	-12.950892	-7.406387	-0.906327	12.971347	-3.698190	6.061182	17.212444	4.990030	3.667435	13.347690	-15.717625	-8.438714	-5.941726	-3.765585	-1.674093	-14.483233	-6.340290	-69.912544	-75.577606	-47.902531	44.697060	14.307980	-5.623774	-13.440165	-10.060304	-1.412818	-2.416854	-0.777858	3.899589	88.481895	-58.865891	76.384888	-10.658436	0.585435	15.866820	-6.280690	-1.135060	4.933626	-0.236544	6.038076	30.055197	
-1.093078	36.755623	-4.257597	-9.187149	-12.134281	-51.663628	4.678516	11.018998	15.041407	-15.076664	32.303699	30.546782	-1.035380	-26.999454	9.443062	-14.732734	-13.252015	-7.406661	-0.790515	12.955263	-3.737939	6.030249	17.158903	4.901700	3.651315	12.941636	-15.409660	-8.294639	-5.972191	-3.857115	-1.837127	-14.404442	-6.448311	-69.439522	-75.543793	-47.482899	44.722698	14.308391	-5.588310	-13.477091	-10.007813	-1.649256	-2.420822	-0.746630	3.948699	88.466476	-58.834206	76.354599	-10.672092	0.598055	15.883041	-6.216245	-1.077398	4.827713	-0.258351	6.006337	29.941628	
-1.208520	36.818966	-4.187623	-9.016408	-12.022626	-51.630543	4.556489	11.057262	15.187263	-14.747049	31.925428	30.310020	-1.154951	-26.802958	9.337379	-14.845169	-13.149498	-7.270290	-0.516232	12.866264	-4.078011	5.921934	17.004959	5.016281	3.595141	12.754889	-15.142495	-8.224646	-5.948279	-3.882327	-1.926121	-14.379626	-6.454013	-68.368820	-75.568108	-46.486298	44.848003	14.244964	-5.517451	-13.660361	-10.014223	-1.785357	-2.315516	-0.651157	4.157567	88.323517	-58.739708	76.210136	-10.718964	0.587219	15.930799	-6.234459	-1.055834	4.795657	-0.245436	5.931366	29.904026	
-1.240749	36.839581	-4.173316	-8.955784	-12.011101	-51.582615	4.435310	11.214785	15.183610	-14.517875	31.575247	30.198746	-1.222520	-26.628313	9.287240	-14.894070	-13.104961	-7.307475	-0.470306	12.833460	-4.210236	5.874920	16.993568	5.137169	3.540278	12.693785	-15.062703	-8.181127	-5.881506	-3.746127	-1.996401	-14.403172	-6.593204	-68.139221	-75.586784	-46.264191	44.896370	14.201888	-5.500214	-13.676989	-10.022220	-1.836184	-2.330490	-0.591295	4.250841	88.329460	-58.713509	76.249023	-10.736689	0.589534	15.911619	-6.235008	-1.035152	4.766859	-0.196188	5.905331	29.889629	
